<svg width="63" height="62" viewBox="0 0 63 62" fill="none" xmlns="http://www.w3.org/2000/svg">
<g clip-path="url(#clip0_384_18314)">
<path fill-rule="evenodd" clip-rule="evenodd" d="M14.3854 15.5268C14.1434 15.14 13.9581 14.7111 13.8395 14.2594C13.807 14.3049 13.781 14.3536 13.7583 14.4025C13.7177 14.5 13.6948 14.6105 13.6948 14.7274C13.6948 14.9516 13.7844 15.1531 13.9273 15.2993C14.0475 15.4227 14.2066 15.5039 14.3854 15.5268ZM22.8953 14.2563C22.7752 14.7111 22.5899 15.1369 22.3479 15.5269C22.5282 15.5071 22.6875 15.4227 22.8076 15.2993C22.9506 15.1531 23.0399 14.9518 23.0399 14.7274C23.0399 14.6105 23.0156 14.4999 22.9765 14.4025C22.9541 14.3504 22.9279 14.3016 22.8953 14.2563ZM22.9279 11.9913C23.0075 12.3358 23.0497 12.6932 23.0497 13.0602C23.0497 13.1807 23.045 13.3009 23.0369 13.4178C23.1278 13.3593 23.2074 13.2781 23.2675 13.1838C23.3503 13.057 23.399 12.9012 23.399 12.7355C23.399 12.5275 23.3276 12.3423 23.2058 12.1993C23.1295 12.1116 23.0353 12.0401 22.9279 11.9913ZM20.3836 9.7785C20.3155 9.92492 20.2423 10.0613 20.1611 10.1945C20.1074 10.2854 20.0489 10.3731 19.989 10.4577L19.9874 10.4608L19.9841 10.4641L19.9646 10.4933L19.9614 10.4964L19.9599 10.4998L19.9549 10.5062L19.9501 10.5128L19.9451 10.5193L19.9388 10.5258L19.9355 10.5321L19.9292 10.5419L19.9259 10.5485L19.9196 10.555L19.9162 10.5615L19.9096 10.568L19.9048 10.5745L19.8951 10.5878L19.8901 10.5941L19.8837 10.6008L19.8821 10.6039L19.879 10.6104L19.874 10.6169L19.869 10.6235L19.8642 10.6299L19.8579 10.6365L19.8546 10.6396L19.853 10.6428C20.1503 10.8962 20.4882 11.1074 20.8523 11.2635C21.1819 11.4031 21.5362 11.4975 21.9066 11.5397L21.9016 11.5266L21.8985 11.5202L21.8935 11.5105C21.7001 11.0685 21.4273 10.6721 21.0908 10.3374C21.0374 10.2853 20.982 10.2301 20.9237 10.178L20.9205 10.1749C20.7524 10.0287 20.5721 9.89556 20.3836 9.7785ZM14.8824 11.4195C15.0222 11.4682 15.1653 11.5106 15.3116 11.5429C15.5747 11.6015 15.8557 11.634 16.1482 11.634C16.9784 11.634 17.7452 11.3708 18.3707 10.9288C18.5868 10.7761 18.7851 10.604 18.9639 10.4124L18.967 10.4058L18.9736 10.3991L18.9881 10.383L18.9962 10.3765L19.0046 10.3669L19.0127 10.3603L19.0191 10.3505L19.0288 10.3408L19.0355 10.3312L19.0386 10.3279L19.0436 10.3248L19.0517 10.3151L19.0581 10.3053H19.0597L19.0681 10.2956L19.0744 10.2891L19.0792 10.2826L19.0824 10.2795L19.0905 10.2697L19.0972 10.26H19.1003L19.1053 10.2534L19.1134 10.2438L19.1198 10.2342L19.128 10.2244L19.1361 10.2145L19.1394 10.2114L19.1425 10.2082L19.1506 10.1986L19.1573 10.1887H19.159L19.1654 10.1789L19.1717 10.1693L19.1784 10.1628V10.1597L19.1881 10.15L19.1945 10.1433L19.1961 10.1402L19.2011 10.1336L19.2092 10.124L19.2156 10.1143L19.2237 10.1046L19.2303 10.0949L19.2334 10.0883L19.2367 10.0852L19.243 10.0754L19.2514 10.0658H19.2529L19.2579 10.0559L19.2661 10.0462L19.2711 10.0398L19.2727 10.0366L19.279 10.027L19.2854 10.0172L19.2887 10.0141L19.2937 10.0075L19.3 9.99773L19.3064 9.98799L19.313 9.97838L19.3194 9.96864C19.365 9.90693 19.4056 9.83872 19.4493 9.77038L19.4738 9.72802C19.5323 9.63058 19.5842 9.52678 19.6329 9.42583C19.2853 9.30579 18.9165 9.23109 18.5332 9.21471H18.5315H18.4925H18.4893L18.4211 9.21147H18.4081H18.3675L18.2683 9.21471H18.2522C18.1646 9.21471 18.0766 9.22121 17.9891 9.23095H17.9727L17.924 9.23731H17.9142L17.8394 9.24706L17.8297 9.25044L17.8038 9.25355C17.1928 9.34125 16.6274 9.57523 16.1448 9.9164L16.1367 9.92276L16.1011 9.94874L16.0945 9.95199L16.0686 9.97161L16.0623 9.97473L16.0459 9.99097L16.0264 10.0041L16.02 10.0105L15.9955 10.0268L15.989 10.0332L15.971 10.0462L15.9533 10.0626L15.947 10.0658L15.9225 10.0853L15.9161 10.0917L15.8997 10.1049L15.8819 10.121L15.8755 10.1243L15.851 10.1471L15.8283 10.1665L15.8122 10.1795L15.8057 10.1861L15.7829 10.2088L15.7779 10.2121L15.7601 10.2283L15.744 10.2413L15.7373 10.2511L15.7145 10.2707L15.6919 10.2934L15.6755 10.3064L15.6691 10.3128L15.6464 10.3357L15.6431 10.3389L15.6269 10.3585L15.6108 10.3715L15.6042 10.3813L15.5619 10.4235L15.5475 10.4397L15.5393 10.4461L15.5196 10.469L15.5165 10.4722L15.4985 10.4918L15.4856 10.5079L15.4775 10.5177L15.4577 10.5404H15.4546L15.4366 10.5631L15.4254 10.5761L15.417 10.5859L15.3975 10.6119H15.3959L15.3764 10.6347L15.3667 10.6477L15.3569 10.6573L15.3391 10.6833H15.3374L15.3197 10.706L15.3083 10.7224L15.302 10.732L15.2825 10.758H15.2807L15.2627 10.7808L15.253 10.7969L15.2466 10.8066L15.2271 10.8326L15.2094 10.8586L15.1997 10.8716L15.1914 10.8813L15.1752 10.9071L15.1735 10.9104L15.1574 10.9331L15.1477 10.9463L15.1393 10.9593L15.1232 10.9851L15.1071 11.0111L15.0974 11.0242L15.0907 11.0372L15.0745 11.0664L15.0581 11.0924L15.05 11.1054L15.0419 11.1184L15.0258 11.1444L15.011 11.1737L15.0029 11.1867L14.9818 11.2257H14.9802V11.229L14.9378 11.3103H14.9362L14.9151 11.3525L14.9087 11.3655L14.8956 11.3915V11.3946L14.8824 11.4195ZM19.2887 11.2539C19.1505 11.3773 19.0045 11.4942 18.8517 11.6046C18.0879 12.1474 17.1538 12.4657 16.1481 12.4657C15.8054 12.4657 15.4641 12.4268 15.1327 12.3521C14.954 12.313 14.7816 12.2644 14.6129 12.2058C14.5494 12.4787 14.5153 12.7681 14.5153 13.0602C14.5153 14.123 14.9474 15.0879 15.6445 15.7834C16.3414 16.4819 17.3035 16.914 18.3676 16.914C19.4317 16.914 20.3935 16.4819 21.0921 15.7865C21.7874 15.0879 22.2179 14.126 22.2179 13.0601C22.2179 12.8326 22.1984 12.6118 22.1612 12.394C21.5828 12.3714 21.032 12.2414 20.5267 12.0269C20.0733 11.8321 19.6558 11.5722 19.2887 11.2539ZM16.8663 17.4991V19.9426L18.2051 22.7987L19.7141 19.806V17.5478C19.2869 17.6746 18.8353 17.746 18.3675 17.746C17.8428 17.746 17.3375 17.6582 16.8663 17.4991ZM16.1223 20.2284C16.111 20.2089 16.0996 20.186 16.0914 20.1602L15.4056 18.698C14.5901 19.0164 13.8818 19.2731 13.2774 19.4941C10.5707 20.4819 10.0831 20.6605 10.0443 22.5225C10.0282 23.3091 10.2604 23.9976 10.6779 24.5923L10.6974 24.6151C11.0678 25.1317 11.5828 25.5803 12.1986 25.9571V22.8538H12.998V26.3827C14.5091 27.0747 16.4164 27.4257 18.3254 27.4193C20.2116 27.4128 22.0931 27.0618 23.5827 26.3502V22.8538H24.3806V25.9116C25.0337 25.4957 25.5699 24.9953 25.9434 24.4071C26.2602 23.9099 26.4601 23.3413 26.5122 22.7077V22.7012L26.5138 22.6947L26.5155 22.6883V22.6849V22.6818V22.6752V22.6687V22.6622L26.5169 22.6557V22.6492V22.6461L26.5185 22.6427V22.6363V22.6297C26.5283 22.4867 26.5283 22.3439 26.5219 22.1976V22.191V22.1846V22.1814V22.1749V22.1684V22.1619V22.1552L26.5203 22.1489V22.1455V22.1391L26.5185 22.1325V22.126V22.1195V22.113V22.1065V22.0999L26.5169 22.0934V22.0903V22.0838L26.5155 22.0773V22.0708V22.0642V22.0575V22.0512L26.5138 22.0445L26.5122 22.038V22.0315V22.0252V22.0186L26.5089 21.9989V21.9762L26.5058 21.9535L26.5042 21.9338L26.5026 21.9111L26.4993 21.8917C26.3596 20.6114 25.6983 20.3677 23.3084 19.4969C22.7006 19.2727 21.9875 19.0127 21.167 18.6943L20.4815 20.0523C20.4748 20.0687 20.4651 20.0848 20.457 20.1012L18.548 23.8868C18.509 23.9613 18.4439 24.0264 18.3611 24.0687C18.1614 24.1597 17.9241 24.0753 17.8332 23.8738L17.3685 22.886L16.1223 20.2284ZM39.7857 9.56725C39.9613 9.63221 40.1415 9.68431 40.325 9.72653C40.629 9.79487 40.949 9.8306 41.2819 9.8306C42.2161 9.8306 43.0822 9.53815 43.7906 9.0442L43.8149 9.02457C44.0617 8.85257 44.2876 8.65431 44.494 8.43332L44.4958 8.43007L44.5023 8.42357L44.5169 8.40747L44.5201 8.40409L44.5248 8.40097C44.832 8.06305 45.0886 7.67966 45.2788 7.26041C44.9211 7.1305 44.5427 7.04591 44.1496 7.01005H44.1332H44.1189H44.1171L44.104 7.00694H44.0879H44.0731H44.0618L44.0588 7.00383H44.0424H44.0281H44.0133H44.0069L43.9972 7.00058H43.9808H43.9663H43.9517H43.9355L43.9209 6.99747H43.9048H43.8934H43.8902H43.8741H43.8593H43.8432H43.8382H43.8284H43.8123H43.796H43.7815H43.7376H43.7246H43.692H43.6678H43.6498L43.6107 7.00058H43.6043H43.562L43.5556 7.00383H43.5165L43.5003 7.00694H43.4746L43.4436 7.01005H43.4304L43.3881 7.0133H43.3863L43.344 7.01655L43.3326 7.01966L43.3017 7.02277L43.2775 7.02616H43.2579L43.222 7.03265H43.2139L43.1716 7.03915H43.1665L43.1293 7.04564H43.1132L43.0871 7.05214L43.0579 7.05539L43.0447 7.05864L43.0041 7.065H43.0024L42.9603 7.07163L42.9507 7.07474L42.9181 7.08137L42.8953 7.08448L42.8759 7.08773L42.8432 7.09734H42.8353L42.7945 7.10708H42.7895L42.7523 7.11683L42.7359 7.11994L42.7101 7.12657L42.6844 7.13307L42.6712 7.13631L42.6323 7.14931H42.629L42.5902 7.15905L42.5804 7.16216L42.5283 7.1784L42.5088 7.18165L42.4762 7.19464H42.4682L42.4275 7.20763L42.4243 7.21102L42.3884 7.22063L42.3723 7.22712L42.3237 7.24323L42.309 7.24986C42.2294 7.27584 42.1513 7.30507 42.0766 7.33755L42.0735 7.34066L41.9271 7.40562H41.9241C41.4577 7.62337 41.0369 7.92231 40.6778 8.27972C40.3088 8.65106 40.0035 9.08642 39.7857 9.56725ZM44.8189 9.27805C44.6533 9.43083 44.4795 9.57063 44.2957 9.70055L44.2715 9.71679C43.4231 10.3113 42.3916 10.6622 41.2819 10.6622C40.8971 10.6622 40.5169 10.6167 40.148 10.5355C39.9319 10.4867 39.7206 10.4251 39.5141 10.3503C39.4345 10.6817 39.3923 11.0294 39.3923 11.3835C39.3923 12.5957 39.8832 13.6939 40.6776 14.4868C41.4705 15.2829 42.5689 15.7736 43.7808 15.7736C44.9927 15.7736 46.0897 15.2829 46.8855 14.4901C47.6783 13.694 48.169 12.5958 48.169 11.3836C48.169 11.1108 48.1429 10.8445 48.0959 10.5811C47.4737 10.5615 46.8693 10.4317 46.307 10.2042C45.7679 9.98325 45.2642 9.67132 44.8189 9.27805ZM46.0278 7.61444C45.8541 7.99133 45.6363 8.34549 45.3814 8.67042C45.7518 8.99223 46.1709 9.2522 46.621 9.43408C47.0125 9.59337 47.425 9.69419 47.8475 9.73641C47.6297 9.19698 47.3066 8.70953 46.9052 8.30327L46.8841 8.28053C46.6272 8.02706 46.3396 7.80295 46.0278 7.61444ZM44.2551 20.8329H43.1326V22.2627H44.2551V20.8329ZM42.7216 20.0335H42.7329H43.2284L41.4202 18.2952L41.417 18.2886L41.4137 18.2855L41.409 18.2824L41.0237 17.9118L40.9149 20.0337H42.7216V20.0335ZM41.4428 26.3146L42.3333 22.62V20.8329H40.4958C40.2763 20.8329 40.096 20.6543 40.096 20.4333L40.2425 17.6194L34.8857 19.7216L34.8761 19.7248L34.4244 19.9035V22.8114V22.8215V26.3437H36.8677V22.2689C36.8677 22.0382 37.0564 21.853 37.2838 21.853C37.5144 21.853 37.6996 22.0382 37.6996 22.2689V26.3145H41.4428V26.3146ZM44.9521 26.3146L44.3251 23.0587H43.0446L42.2617 26.3146H44.9521ZM45.2916 16.742V16.3845C44.8124 16.5275 44.3055 16.6055 43.7808 16.6055C43.191 16.6055 42.6239 16.5079 42.0961 16.3262V17.8404L43.5939 19.2797L45.2916 17.7592V16.742ZM45.0544 20.8297V22.6266L45.7627 26.3146H49.6865V22.269C49.6865 22.0383 49.8734 21.8532 50.1022 21.8532C50.3331 21.8532 50.5183 22.0383 50.5183 22.269V26.3438H52.9635V19.9035L47.1454 17.6192L47.2884 20.4135C47.2998 20.6313 47.1308 20.8198 46.9113 20.8294H45.0544V20.8297ZM45.9823 18.2106C45.9676 18.2267 45.953 18.24 45.9366 18.253L45.9319 18.2561H45.9303L45.927 18.2594L43.9435 20.0334H44.6549H44.6664H46.4731L46.3591 17.8726L45.9823 18.2106ZM31.5892 14.11C31.2497 13.7687 30.7752 13.5576 30.2554 13.5576C29.7322 13.5576 29.2611 13.7687 28.9198 14.11C28.5772 14.451 28.3658 14.9254 28.3658 15.4454C28.3658 15.9686 28.5785 16.4397 28.9198 16.7809C29.2611 17.122 29.7322 17.3332 30.2554 17.3332C30.7752 17.3332 31.2464 17.122 31.5892 16.7809C31.9305 16.4397 32.1431 15.9686 32.1431 15.4454C32.1431 14.9255 31.9305 14.4544 31.5892 14.11ZM30.7703 18.412V18.1163C30.6029 18.1487 30.4308 18.165 30.2553 18.165C30.0473 18.165 29.8459 18.1423 29.6543 18.1001V18.4542L30.1691 18.9514L30.7703 18.412ZM31.4609 18.8606C31.4445 18.8801 31.425 18.8964 31.4056 18.9126L30.4355 19.7801L30.4292 19.7866L30.4244 19.7899L30.4212 19.793L30.4162 19.7962L30.4145 19.7995L30.4098 19.8027L30.4066 19.8058L30.4018 19.809L30.3952 19.8121L30.3904 19.8154L30.3854 19.8185L30.3823 19.8217L30.3791 19.825H30.3758L30.3711 19.8281L30.3661 19.8312L30.3631 19.8346L30.3581 19.8377H30.3549L30.3501 19.8408L30.3469 19.8442H30.3421L30.3371 19.8473L30.3308 19.8506L30.3241 19.8537H30.321L30.316 19.8569H30.3128L30.308 19.86H30.3048L30.2984 19.8633L30.2952 19.8664H30.2904L30.2871 19.8696H30.2821H30.2789L30.2723 19.8728H30.2684L30.2618 19.8759H30.2588H30.2521L30.2504 19.8809H30.2423L30.2341 19.884H30.2325H30.2262H30.2229L30.2166 19.8872H30.2149H30.2068H30.1971C30.1678 19.8905 30.1354 19.8905 30.1061 19.8872H30.1045L30.0964 19.884H30.0946H30.0864L30.0782 19.8809H30.0766H30.0703L30.0444 19.8742L30.0412 19.8711L30.0248 19.8679H30.0217L30.0184 19.8648L30.0087 19.8615L30.0054 19.8584H30.0007L29.9957 19.8552L29.9601 19.8357L29.9535 19.8323H29.9505L29.9455 19.8292L29.9439 19.8261L29.9357 19.8228L29.9294 19.8163H29.9278L29.9214 19.8131V19.81L29.9148 19.8067L29.9117 19.8036L29.905 19.8005L29.8987 19.7939L29.892 19.7872L29.8839 19.7807L28.9788 18.9099L28.9758 18.9068L28.9708 18.9037L28.9677 18.897L28.6719 18.6143L25.9765 19.6736V19.7223C26.8443 20.1902 27.1754 20.7068 27.2892 21.7662L27.2925 21.7858V21.7921L27.2957 21.8215L27.2972 21.8475L27.2988 21.8702L27.3005 21.8735L27.3021 21.9027L27.3055 21.9287L27.3068 21.9578L27.3086 21.9644V21.9711V21.9774V21.984V21.9905L27.3102 22.0001L27.3118 22.0068V22.0099V22.013V22.0196V22.0263V22.0326L27.3135 22.0391V22.0456V22.0522L27.3151 22.0586V22.062V22.0651V22.0717V22.0782V22.0878L27.3166 22.0943V22.1008V22.1075L27.3182 22.114V22.1205V22.127V22.1334V22.1401V22.1498V22.1562V22.1628H27.3198V22.1693V22.1758V22.1823C27.3214 22.2603 27.3248 22.3351 27.3248 22.4098L33.6254 22.4129V19.6349V19.6252V19.622V19.6187V19.6156V19.6122V19.6091L33.6269 19.606V19.6028V19.5995L33.6285 19.5964V19.5932V19.5769H33.6302L33.6335 19.5542C33.6416 19.5152 33.6546 19.4829 33.6707 19.4471C33.6805 19.4308 33.6902 19.4145 33.7032 19.3983L33.705 19.3952H33.7066L33.7081 19.3918L33.7098 19.3887L33.7131 19.3856L31.7439 18.6122L31.4662 18.859L31.4609 18.8606ZM15.222 40.4558C15.6445 40.4103 16.0491 40.5371 16.3561 40.7841C16.6647 41.0309 16.8809 41.395 16.9296 41.8173C16.9752 42.2397 16.8484 42.646 16.603 42.9546C16.3561 43.2632 15.9904 43.4777 15.5682 43.5265C15.144 43.5753 14.7428 43.4452 14.4323 43.1984C14.1237 42.9546 13.9078 42.5875 13.8588 42.1651C13.8135 41.7426 13.94 41.3396 14.187 41.0309C14.4325 40.719 14.7981 40.5046 15.222 40.4558ZM11.6818 32.339C10.5415 32.8784 8.67311 33.7655 8.38039 34.334L8.37227 34.3504C8.15141 34.8149 8.35454 35.533 8.58338 36.3454C8.6501 36.5794 8.71831 36.823 8.77528 37.0537C9.235 38.8928 9.24312 41.0374 9.25124 43.1268C9.25787 45.3103 9.26585 47.4387 9.80379 49.0146C9.87199 49.2161 9.91584 49.294 9.94981 49.294C10.083 49.2908 10.3397 49.1414 10.6745 48.9431C11.282 48.589 12.5151 48.0169 13.9174 47.3705C16.6776 46.0933 20.1188 44.5012 20.3948 43.8902C20.4939 43.6727 20.5166 43.3964 20.4731 43.0748L20.4714 43.0584C20.4179 42.6882 20.2812 42.2592 20.0765 41.7815C19.5796 40.6182 18.3316 38.3438 17.0579 36.2868C16.0165 34.6036 14.9605 33.0762 14.3042 32.4395L14.2976 32.4363V32.4331C13.825 31.9814 13.4398 31.8254 13.118 31.8156C12.7999 31.8059 12.5039 31.939 12.2489 32.0657L11.6818 32.339ZM15.2075 32.2448C15.9011 33.0406 16.8257 34.4054 17.7353 35.8709C18.9118 37.7719 20.0701 39.8613 20.6533 41.1186C25.7566 39.2145 28.3707 40.0529 31.1391 40.9431C32.9586 41.528 34.8497 42.139 37.6134 41.931C39.789 41.7717 44.7571 39.4355 48.8351 36.8393C52.2211 34.6816 54.9683 32.3909 54.8757 31.13L54.8626 31.0034C54.775 30.3727 54.3786 30.0025 53.8636 29.801C53.2834 29.5733 52.5509 29.5378 51.8928 29.5866C51.7236 29.5995 51.5612 29.6157 51.4068 29.6386C49.8911 29.8464 47.8733 30.493 45.9413 31.3217C44.0714 32.1245 42.2874 33.096 41.1274 34.0089C40.7667 34.8116 39.9139 35.2341 38.8123 35.4061C36.1657 35.8221 31.9869 34.6977 30.3769 34.2624L30.0081 34.1648C29.7938 34.1064 29.6686 33.8886 29.7256 33.6743C29.7807 33.463 30.0002 33.3362 30.2129 33.3947L30.5833 33.4922C32.1493 33.9147 36.2144 35.0097 38.6905 34.6198C39.8764 34.4347 40.6693 33.8725 40.4874 32.6443L40.4693 32.5434C40.1004 30.6849 37.0851 29.4338 33.6962 28.7124C30.2128 27.9682 26.3705 27.8059 24.4874 28.1014L24.2534 28.1437C22.9064 28.4102 21.1632 29.1381 19.4542 29.9699L19.4249 29.9895C17.8736 30.7468 16.3707 31.5785 15.2075 32.2448ZM15.8606 41.4078C15.7112 41.2876 15.5163 41.2259 15.31 41.2487C15.1053 41.2714 14.9282 41.3755 14.811 41.5247C14.6908 41.6741 14.6291 41.8725 14.6518 42.0773C14.6746 42.2819 14.7787 42.4574 14.9281 42.5745C15.0775 42.6945 15.2741 42.7564 15.4805 42.7336C15.6851 42.7109 15.8606 42.6067 15.9794 42.4574C16.0978 42.308 16.1597 42.113 16.137 41.905C16.114 41.7036 16.0102 41.5249 15.8606 41.4078ZM18.4797 8.38122H18.4878H18.4959H18.5123H18.5284H18.5448H18.5479H18.561L18.5771 8.38446H18.5935H18.6079H18.6096H18.6259L18.6404 8.38758H18.6568H18.668H18.673L18.6891 8.39082H18.7055H18.72H18.7266L18.7364 8.39394H18.7526H18.769L18.7851 8.39732H18.7867L18.8176 8.40043H18.8338L18.8647 8.40355L18.8794 8.40693H18.8955L18.928 8.41329H18.9444L18.9606 8.41654C20.0133 8.5497 20.9639 9.03716 21.677 9.74886C22.0668 10.1387 22.3887 10.597 22.6226 11.1038C22.6454 11.0648 22.6649 11.0258 22.6827 10.9835C22.7217 10.8894 22.7444 10.7821 22.7444 10.6649C22.7444 10.4733 22.6811 10.3011 22.577 10.1646C22.4732 10.0251 22.3219 9.92438 22.1514 9.87891L22.08 9.85279C21.8817 9.7586 21.7956 9.52137 21.8883 9.32311C21.9109 9.27764 21.9289 9.22567 21.9434 9.17046L21.9467 9.15422C21.9598 9.09562 21.9662 9.03391 21.9662 8.96895C21.9662 8.74485 21.8768 8.54023 21.7353 8.39718C21.594 8.25401 21.3974 8.1632 21.1829 8.1632C21.0986 8.1632 21.0205 8.17633 20.9506 8.19568C20.8774 8.21828 20.8094 8.25414 20.7443 8.29975L20.7379 8.30286C20.5721 8.41992 20.3399 8.3938 20.205 8.23465C20.1399 8.1567 20.0571 8.09161 19.9644 8.04939C19.8768 8.0073 19.7791 7.98456 19.672 7.98456C19.6232 7.98456 19.5711 7.99106 19.5258 8.0008L19.347 8.06251C19.1393 8.13397 18.9118 8.02354 18.8402 7.81554C18.7913 7.67588 18.7101 7.54582 18.6093 7.44514C18.5378 7.3768 18.4566 7.31833 18.3673 7.273C18.2777 7.31847 18.1965 7.37693 18.1269 7.44514C18.0245 7.54582 17.9433 7.67263 17.8946 7.81554L17.8799 7.85451C17.7873 8.05291 17.5501 8.1406 17.3519 8.04627L17.209 8.0008C17.1634 7.99106 17.1131 7.98456 17.0628 7.98456C16.9652 7.98456 16.8742 8.00405 16.793 8.03964L16.7703 8.04939C16.6794 8.09174 16.5982 8.15359 16.5333 8.23154L16.5301 8.23465C16.3969 8.39055 16.1661 8.42317 15.9972 8.30286C15.9304 8.25739 15.859 8.22166 15.7858 8.19568C15.7159 8.17619 15.6364 8.1632 15.5518 8.1632C15.3374 8.1632 15.1424 8.25089 15.0011 8.39718C14.8581 8.54023 14.7689 8.74471 14.7689 8.96895C14.7689 9.03391 14.777 9.09576 14.7884 9.15422C14.8013 9.20632 14.8176 9.25491 14.837 9.30376L14.8726 9.3947C14.9279 9.60906 14.798 9.82681 14.585 9.87891C14.4145 9.92438 14.2618 10.0251 14.1578 10.1646C14.0537 10.3011 13.9904 10.4733 13.9904 10.6649C13.9904 10.782 14.0131 10.8893 14.0521 10.9835L14.1138 11.1005C14.3007 10.6975 14.5444 10.324 14.8336 9.99245L14.845 9.97635L14.8628 9.95659L14.8923 9.92438L14.8953 9.921L14.9668 9.84319L14.9831 9.82343L15.001 9.80732L15.0155 9.79433L15.0187 9.7877L15.0382 9.76821L15.0463 9.76172L15.0547 9.75197L15.0645 9.74223L15.0789 9.72924L15.1034 9.70339L15.1098 9.69676L15.1424 9.66753L15.144 9.66428L15.1749 9.63505L15.1846 9.62855L15.2091 9.60582L15.2269 9.58944L15.2431 9.57659L15.2692 9.5506L15.2756 9.54397L15.3097 9.51487H15.3114L15.3439 9.48551L15.3537 9.47901L15.3779 9.45614L15.3956 9.44329L15.412 9.43016L15.4396 9.40742L15.4477 9.40093L15.4836 9.37156L15.5192 9.34571L15.5276 9.33922L15.5552 9.31635L15.5729 9.30349L15.5908 9.29023L15.6169 9.27074L15.6266 9.26424L15.664 9.23826C16.0264 8.98154 16.4293 8.77367 16.8565 8.62752L16.8713 8.62413L16.8989 8.61439L16.9412 8.6014L16.9784 8.58841H16.9834L17.0258 8.57217H17.0339L17.0695 8.56242L17.089 8.55593L17.1117 8.54943L17.146 8.53982L17.1541 8.53644L17.1963 8.5267L17.2011 8.52358L17.2419 8.51384L17.2582 8.51073L17.284 8.50423L17.3135 8.49773L17.328 8.49462L17.3704 8.48474H17.372L17.416 8.475L17.4272 8.47189L17.4597 8.46539L17.4842 8.46214L17.5037 8.45889L17.5409 8.45253L17.5475 8.44915L17.5928 8.44279H17.5995L17.6367 8.43616L17.6578 8.43305L17.6805 8.4298L17.7145 8.4233H17.7259L17.7715 8.41681H17.7732L17.8169 8.41031L17.8317 8.4072L17.8626 8.40382H17.8918L17.9082 8.4007L17.9502 8.39759H17.9535L17.9991 8.39421L18.0088 8.39109H18.0444L18.0672 8.38785L18.1826 8.38135H18.1873L18.3677 8.37824L18.4797 8.38122ZM0.790001 50.6101C0.560887 50.6101 0.374268 50.4249 0.374268 50.1942C0.374268 49.9668 0.560887 49.7782 0.790001 49.7782H45.8734C46.1024 49.7782 46.2893 49.9669 46.2893 50.1942C46.2893 50.4249 46.1024 50.6101 45.8734 50.6101H0.790001ZM16.3317 52.7449C16.1108 52.7449 15.9321 52.5629 15.9321 52.3453C15.9321 52.1243 16.1108 51.9457 16.3317 51.9457H48.3154C48.5363 51.9457 48.7151 52.1243 48.7151 52.3453C48.7151 52.5629 48.5363 52.7449 48.3154 52.7449H16.3317ZM35.0596 54.688C34.8401 54.688 34.6616 54.5094 34.6616 54.2884C34.6616 54.0708 34.8401 53.8888 35.0596 53.8888H57.1925C57.4137 53.8888 57.5922 54.0708 57.5922 54.2884C57.5922 54.5094 57.4137 54.688 57.1925 54.688H35.0596ZM59.4576 54.688C59.2364 54.688 59.0577 54.5094 59.0577 54.2884C59.0577 54.0708 59.2364 53.8888 59.4576 53.8888H62.2259C62.4451 53.8888 62.6256 54.0708 62.6256 54.2884C62.6256 54.5094 62.4451 54.688 62.2259 54.688H59.4576ZM15.071 54.6297C14.8501 54.6297 14.6713 54.4509 14.6713 54.2301C14.6713 54.0091 14.8501 53.8303 15.071 53.8303H25.5584C25.7776 53.8303 25.958 54.0091 25.958 54.2301C25.958 54.4509 25.7776 54.6297 25.5584 54.6297H15.071ZM13.6982 13.4178C13.6901 13.301 13.6834 13.1807 13.6834 13.0602C13.6834 12.6931 13.7258 12.3357 13.807 11.9913C13.6998 12.04 13.6056 12.1116 13.5292 12.1993C13.4074 12.3423 13.3343 12.5275 13.3343 12.7355C13.3343 12.8947 13.3781 13.0409 13.453 13.1612L13.4692 13.1839C13.5277 13.2781 13.6072 13.3561 13.6982 13.4178Z" fill="black"/>
</g>
<defs>
<clipPath id="clip0_384_18314">
<rect width="62" height="62" fill="white" transform="translate(0.5)"/>
</clipPath>
</defs>
</svg>
