<svg width="186" height="46" viewBox="0 0 186 46" fill="none" xmlns="http://www.w3.org/2000/svg">
<path d="M17.5 17.25H2V31M2 44.75V31M2 31H17.5M63.5 23.75H54.5C52.8333 24 49.5 25.15 49.5 27.75C49.5 30.35 49.5 36.8333 49.5 39.75C50 40.9167 51.7 43.25 54.5 43.25C57.3 43.25 61.6667 43.25 63.5 43.25M71 22.25V39.75C71 40.9167 71.8 43.25 75 43.25C78.2 43.25 80.6667 43.25 81.5 43.25C82.8333 43.0833 85.5 42.15 85.5 39.75C85.5 37.35 85.5 27.0833 85.5 22.25M109 23.75H100C96.5 23.75 94 31 100 32.75L105.5 34.75C109 34.75 111.1 42.05 105.5 43.25H96M29.5 23.75H34.5C36 23.5833 39 24.45 39 29.25C39 34.05 39 38.25 39 39.75C38.6667 40.9167 37.3 43.25 34.5 43.25C31.7 43.25 30 43.25 29.5 43.25C28 43.4167 25 42.95 25 39.75C25 36.55 25 31.4167 25 29.25C24.8333 27.4167 25.5 23.75 29.5 23.75Z" stroke="white" stroke-width="4"/>
<path d="M122.5 25.75V34.75H132M132 1.25H122.5V12.25M176 1.25H185V12.25M185 25.75V34.75H176M141 12.25H136C135.333 12.25 134 12.55 134 13.75C134 14.95 134 19.9167 134 22.25C134.167 22.75 134.8 23.75 136 23.75C137.2 23.75 139.833 23.75 141 23.75M147 11.25V18V24.75M151 12.25H155.75M160.5 12.25H155.75M155.75 12.25V24.75M164 12.25L169 19.75M169 19.75V24.75M169 19.75L174 12.25" stroke="white" stroke-width="2"/>
</svg>
