<svg width="63" height="62" viewBox="0 0 63 62" fill="none" xmlns="http://www.w3.org/2000/svg">
<g clip-path="url(#clip0_384_18266)">
<path d="M30.0118 22.7832H14.1699C13.9536 22.7832 13.7643 22.6377 13.7083 22.4285C13.6527 22.2195 13.7443 21.9991 13.9321 21.8912C14.1683 21.7554 14.4085 21.6199 14.6505 21.4837C16.5897 20.3908 18.5946 19.2606 19.0898 17.6267C19.2434 17.1182 19.218 16.6734 19.0203 16.4071C18.874 16.2102 18.63 16.1104 18.2949 16.1104C17.3417 16.1104 15.9132 16.9203 14.3759 18.3323C13.6432 19.0011 12.7618 19.1188 11.9092 19.2328C10.5173 19.419 9.20239 19.5946 8.35755 22.2357C8.30642 22.395 8.17591 22.5162 8.01306 22.5548L7.47571 22.6827V36.4108L9.5061 37.5614H22.11C22.9314 37.5614 23.5997 36.889 23.5997 36.0627C23.5997 35.262 22.9497 34.5983 22.1506 34.5835C21.8886 34.5787 21.6794 34.3635 21.6819 34.1013C21.6842 33.8391 21.8975 33.6279 22.1597 33.6279H25.0212C25.8426 33.6279 26.5109 32.9599 26.5109 32.1388C26.5109 31.3324 25.861 30.6646 25.062 30.65C24.7999 30.6452 24.5906 30.4301 24.5931 30.1679C24.5954 29.9058 24.8085 29.6945 25.0707 29.6945H27.3017C28.1227 29.6945 28.7905 29.0264 28.7905 28.2052C28.7905 27.401 28.1385 26.7286 27.3371 26.7062C27.0759 26.6989 26.8691 26.4832 26.8727 26.2219C26.8762 25.9607 27.0892 25.7508 27.3505 25.7508H30.0119C30.8189 25.7508 31.5006 25.0735 31.5006 24.2716C31.5006 23.4509 30.8327 22.7832 30.0118 22.7832Z" fill="#3C3C3B"/>
<path d="M3.51553 26.6871C3.86147 26.6871 4.14333 26.401 4.14333 26.0493C4.14333 25.7085 3.86162 25.4312 3.51553 25.4312C3.16594 25.4312 2.89209 25.7027 2.89209 26.0493C2.89194 26.401 3.17162 26.6871 3.51553 26.6871Z" fill="#3C3C3B"/>
<path d="M59.4868 35.2911C59.1403 35.2911 58.8582 35.5729 58.8582 35.9193C58.8582 36.2714 59.1343 36.5471 59.4868 36.5471C59.8389 36.5471 60.1146 36.2714 60.1146 35.9193C60.1146 35.5729 59.8331 35.2911 59.4868 35.2911Z" fill="#3C3C3B"/>
<path d="M0.539307 37.5639H6.49662V36.6917V22.5898H0.539307V37.5639ZM3.51549 24.4815C4.38844 24.4815 5.09869 25.1876 5.09869 26.0551C5.09869 26.9336 4.38844 27.6484 3.51549 27.6484C2.64486 27.6484 1.9365 26.9336 1.9365 26.0551C1.9365 25.1876 2.64486 24.4815 3.51549 24.4815Z" fill="#3C3C3B"/>
<path d="M54.6387 31.5145C53.7956 28.8774 52.4831 28.7023 51.0935 28.5167C50.2387 28.4028 49.3545 28.2848 48.6213 27.611C47.0832 26.2023 45.6547 25.394 44.7024 25.394C44.3682 25.394 44.1248 25.4935 43.9794 25.6896C43.7815 25.9564 43.7567 26.4032 43.9118 26.9156C44.407 28.5555 46.4355 29.6933 48.3974 30.7934C48.6216 30.9193 48.8446 31.0441 49.0636 31.1691C49.2518 31.2766 49.3445 31.4971 49.289 31.7066C49.2333 31.9161 49.0437 32.0619 48.8271 32.0619H32.9854C32.1644 32.0619 31.4966 32.73 31.4966 33.5511C31.4966 34.3581 32.1783 35.04 32.9854 35.04H35.6468C35.908 35.04 36.1209 35.2497 36.1244 35.511C36.1281 35.7721 35.9212 35.9878 35.6601 35.9951C34.8588 36.0173 34.2066 36.6855 34.2066 37.4845C34.2066 38.3056 34.8746 38.9734 35.6955 38.9734H37.9264C38.1876 38.9734 38.4004 39.1832 38.4041 39.4444C38.4074 39.7057 38.2007 39.9213 37.9397 39.9285C37.1412 39.9508 36.4915 40.6191 36.4915 41.4181C36.4915 42.239 37.1569 42.9069 37.9751 42.9069H40.8373C41.0985 42.9069 41.3113 43.1165 41.315 43.3778C41.3188 43.6391 41.1118 43.8547 40.8506 43.8622C40.0492 43.8846 39.397 44.5527 39.397 45.3516C39.397 46.1724 40.065 46.8402 40.886 46.8402H53.495L55.5254 45.6895V31.9621L54.9831 31.8339C54.8207 31.7952 54.6897 31.6741 54.6387 31.5145Z" fill="#3C3C3B"/>
<path d="M56.51 31.8716V45.9732V46.8455H62.4629V31.8716H56.51ZM59.4868 37.5077C58.6132 37.5077 57.9027 36.7974 57.9027 35.9245C57.9027 35.0512 58.6132 34.3408 59.4868 34.3408C60.3597 34.3408 61.07 35.0512 61.07 35.9245C61.0701 36.7974 60.3599 37.5077 59.4868 37.5077Z" fill="#3C3C3B"/>
<path d="M16.1006 42.2926H14.9692V41.1561C14.9692 40.8923 14.7552 40.6785 14.4914 40.6785C14.2277 40.6785 14.0138 40.8924 14.0138 41.1561V42.2926H12.8816C12.6178 42.2926 12.4038 42.5065 12.4038 42.7703C12.4038 43.0341 12.6178 43.248 12.8816 43.248H14.0138V44.3748C14.0138 44.6389 14.2277 44.8526 14.4914 44.8526C14.7552 44.8526 14.9692 44.6387 14.9692 44.3748V43.248H16.1006C16.3644 43.248 16.5784 43.0341 16.5784 42.7703C16.5784 42.5065 16.3644 42.2926 16.1006 42.2926Z" fill="#3C3C3B"/>
<path d="M22.3716 45.3814H21.2404V44.2447C21.2404 43.9806 21.0264 43.7669 20.7626 43.7669C20.4986 43.7669 20.2848 43.9807 20.2848 44.2447V45.3814H19.1526C18.8888 45.3814 18.6748 45.5954 18.6748 45.8592C18.6748 46.123 18.8888 46.337 19.1526 46.337H20.2848V47.4638C20.2848 47.7278 20.4986 47.9415 20.7626 47.9415C21.0264 47.9415 21.2404 47.7276 21.2404 47.4638V46.337H22.3716C22.6354 46.337 22.8494 46.123 22.8494 45.8592C22.8494 45.5954 22.6354 45.3814 22.3716 45.3814Z" fill="#3C3C3B"/>
<path d="M30.1213 16.6187H31.2534V17.7551C31.2534 18.0191 31.4673 18.2329 31.7312 18.2329C31.9951 18.2329 32.209 18.0191 32.209 17.7551V16.6187H33.3358C33.5999 16.6187 33.8134 16.4048 33.8134 16.1409C33.8134 15.8771 33.5998 15.6631 33.3358 15.6631H32.209V14.5361C32.209 14.2722 31.995 14.0584 31.7312 14.0584C31.4674 14.0584 31.2534 14.2722 31.2534 14.5361V15.6631H30.1213C29.8574 15.6631 29.6436 15.8771 29.6436 16.1409C29.6436 16.4048 29.8574 16.6187 30.1213 16.6187Z" fill="#3C3C3B"/>
<path d="M36.3886 19.7063H37.5261V20.8333C37.5261 21.0972 37.7398 21.3111 38.0037 21.3111C38.2677 21.3111 38.4814 21.0972 38.4814 20.8333V19.7063H39.6084C39.8723 19.7063 40.0861 19.4923 40.0861 19.2285C40.0861 18.9646 39.8722 18.7507 39.6084 18.7507H38.4814V17.6143C38.4814 17.3505 38.2677 17.1365 38.0037 17.1365C37.7398 17.1365 37.5261 17.3505 37.5261 17.6143V18.7507H36.3886C36.1247 18.7507 35.911 18.9646 35.911 19.2285C35.911 19.4923 36.1248 19.7063 36.3886 19.7063Z" fill="#3C3C3B"/>
</g>
<defs>
<clipPath id="clip0_384_18266">
<rect width="62" height="62" fill="white" transform="translate(0.5)"/>
</clipPath>
</defs>
</svg>
