<svg width="524" height="66" viewBox="0 0 524 66" fill="none" xmlns="http://www.w3.org/2000/svg">
<path d="M0 2.80871H8.62705L28.9123 51.9091H29.6118L49.897 2.80871H58.524V61.9602H51.7623V17.0189H51.1794L32.5263 61.9602H25.9977L7.34465 17.0189H6.76174V61.9602H0V2.80871Z" fill="white"/>
<path d="M123.38 32.3845C123.38 38.6231 122.243 44.0145 119.97 48.5587C117.697 53.1029 114.578 56.6073 110.614 59.072C106.65 61.5366 102.123 62.7689 97.0325 62.7689C91.9417 62.7689 87.4145 61.5366 83.4507 59.072C79.4869 56.6073 76.3683 53.1029 74.095 48.5587C71.8216 44.0145 70.685 38.6231 70.685 32.3845C70.685 26.1458 71.8216 20.7544 74.095 16.2102C76.3683 11.666 79.4869 8.16162 83.4507 5.69697C87.4145 3.23232 91.9417 2 97.0325 2C102.123 2 106.65 3.23232 110.614 5.69697C114.578 8.16162 117.697 11.666 119.97 16.2102C122.243 20.7544 123.38 26.1458 123.38 32.3845ZM116.385 32.3845C116.385 27.2626 115.52 22.9399 113.791 19.4162C112.081 15.8925 109.759 13.2257 106.825 11.4157C103.911 9.60575 100.646 8.70076 97.0325 8.70076C93.4184 8.70076 90.1444 9.60575 87.2104 11.4157C84.2959 13.2257 81.974 15.8925 80.2447 19.4162C78.5348 22.9399 77.6799 27.2626 77.6799 32.3845C77.6799 37.5063 78.5348 41.8291 80.2447 45.3527C81.974 48.8764 84.2959 51.5432 87.2104 53.3532C90.1444 55.1632 93.4184 56.0682 97.0325 56.0682C100.646 56.0682 103.911 55.1632 106.825 53.3532C109.759 51.5432 112.081 48.8764 113.791 45.3527C115.52 41.8291 116.385 37.5063 116.385 32.3845Z" fill="white"/>
<path d="M168.176 17.5966C167.827 14.6698 166.408 12.3977 163.921 10.7803C161.434 9.16288 158.384 8.35417 154.77 8.35417C152.127 8.35417 149.815 8.77778 147.833 9.625C145.87 10.4722 144.335 11.6372 143.228 13.1198C142.14 14.6024 141.596 16.2872 141.596 18.1742C141.596 19.7532 141.975 21.1106 142.732 22.2467C143.51 23.3635 144.501 24.2973 145.705 25.0483C146.91 25.78 148.173 26.3865 149.494 26.8679C150.816 27.33 152.03 27.7055 153.137 27.9943L159.2 29.6117C160.754 30.0161 162.483 30.5745 164.388 31.2869C166.311 31.9994 168.147 32.9718 169.896 34.2041C171.664 35.4171 173.121 36.9768 174.268 38.8831C175.414 40.7893 175.987 43.1288 175.987 45.9015C175.987 49.0979 175.142 51.9861 173.452 54.5663C171.781 57.1465 169.333 59.1971 166.107 60.7183C162.901 62.2394 159.005 63 154.42 63C150.145 63 146.444 62.3164 143.315 60.9493C140.207 59.5822 137.758 57.676 135.971 55.2306C134.203 52.7852 133.202 49.9451 132.969 46.7102H140.43C140.624 48.9438 141.382 50.7923 142.703 52.2557C144.044 53.6998 145.734 54.7781 147.775 55.4905C149.834 56.1837 152.049 56.5303 154.42 56.5303C157.179 56.5303 159.656 56.0874 161.852 55.2017C164.048 54.2967 165.787 53.0451 167.069 51.447C168.351 49.8295 168.993 47.9426 168.993 45.786C168.993 43.822 168.439 42.2238 167.331 40.9915C166.224 39.7592 164.766 38.7579 162.959 37.9877C161.152 37.2175 159.2 36.5436 157.101 35.9659L149.757 33.8864C145.093 32.5578 141.402 30.6611 138.681 28.1965C135.961 25.7319 134.601 22.5066 134.601 18.5208C134.601 15.209 135.504 12.3207 137.311 9.85606C139.138 7.37216 141.586 5.44665 144.656 4.07955C147.746 2.69318 151.194 2 155.003 2C158.85 2 162.27 2.68355 165.262 4.05066C168.254 5.39851 170.625 7.247 172.373 9.59612C174.142 11.9452 175.074 14.6121 175.171 17.5966H168.176Z" fill="white"/>
<path d="M235.903 21.2936H228.675C228.248 19.2333 227.5 17.4233 226.431 15.8636C225.382 14.304 224.099 12.9946 222.584 11.9356C221.088 10.8573 219.426 10.0486 217.6 9.50947C215.773 8.97033 213.869 8.70076 211.887 8.70076C208.273 8.70076 204.999 9.60575 202.065 11.4157C199.151 13.2257 196.829 15.8925 195.1 19.4162C193.39 22.9399 192.535 27.2626 192.535 32.3845C192.535 37.5063 193.39 41.8291 195.1 45.3527C196.829 48.8764 199.151 51.5432 202.065 53.3532C204.999 55.1632 208.273 56.0682 211.887 56.0682C213.869 56.0682 215.773 55.7986 217.6 55.2595C219.426 54.7203 221.088 53.9212 222.584 52.8622C224.099 51.7839 225.382 50.465 226.431 48.9053C227.5 47.3264 228.248 45.5164 228.675 43.4754H235.903C235.359 46.4984 234.368 49.2038 232.93 51.5914C231.493 53.979 229.705 56.0104 227.568 57.6856C225.43 59.3415 223.031 60.6027 220.369 61.4692C217.726 62.3357 214.899 62.7689 211.887 62.7689C206.797 62.7689 202.269 61.5366 198.306 59.072C194.342 56.6073 191.223 53.1029 188.95 48.5587C186.677 44.0145 185.54 38.6231 185.54 32.3845C185.54 26.1458 186.677 20.7544 188.95 16.2102C191.223 11.666 194.342 8.16162 198.306 5.69697C202.269 3.23232 206.797 2 211.887 2C214.899 2 217.726 2.43324 220.369 3.29972C223.031 4.16619 225.43 5.43703 227.568 7.11222C229.705 8.76815 231.493 10.7899 232.93 13.1776C234.368 15.5459 235.359 18.2513 235.903 21.2936Z" fill="white"/>
<path d="M297.947 32.3845C297.947 38.6231 296.81 44.0145 294.537 48.5587C292.263 53.1029 289.145 56.6073 285.181 59.072C281.217 61.5366 276.69 62.7689 271.599 62.7689C266.508 62.7689 261.981 61.5366 258.017 59.072C254.053 56.6073 250.935 53.1029 248.662 48.5587C246.388 44.0145 245.252 38.6231 245.252 32.3845C245.252 26.1458 246.388 20.7544 248.662 16.2102C250.935 11.666 254.053 8.16162 258.017 5.69697C261.981 3.23232 266.508 2 271.599 2C276.69 2 281.217 3.23232 285.181 5.69697C289.145 8.16162 292.263 11.666 294.537 16.2102C296.81 20.7544 297.947 26.1458 297.947 32.3845ZM290.952 32.3845C290.952 27.2626 290.087 22.9399 288.358 19.4162C286.648 15.8925 284.326 13.2257 281.392 11.4157C278.477 9.60575 275.213 8.70076 271.599 8.70076C267.985 8.70076 264.711 9.60575 261.777 11.4157C258.862 13.2257 256.541 15.8925 254.811 19.4162C253.101 22.9399 252.246 27.2626 252.246 32.3845C252.246 37.5063 253.101 41.8291 254.811 45.3527C256.541 48.8764 258.862 51.5432 261.777 53.3532C264.711 55.1632 267.985 56.0682 271.599 56.0682C275.213 56.0682 278.477 55.1632 281.392 53.3532C284.326 51.5432 286.648 48.8764 288.358 45.3527C290.087 41.8291 290.952 37.5063 290.952 32.3845Z" fill="white"/>
<path d="M320.942 61.9602L304.621 2.80871H311.965L324.44 50.9848H325.023L337.73 2.80871H345.891L358.598 50.9848H359.181L371.655 2.80871H379L362.679 61.9602H355.217L342.044 14.8239H341.577L328.404 61.9602H320.942Z" fill="white"/>
<path d="M407 47.3433V64H424.48M424.48 2H407V22.3582M505.44 2H522V22.3582M522 47.3433V64H505.44M441.04 22.3582H431.84C430.613 22.3582 428.16 22.9134 428.16 25.1343C428.16 27.3552 428.16 36.5473 428.16 40.8657C428.467 41.791 429.632 43.6418 431.84 43.6418C434.048 43.6418 438.893 43.6418 441.04 43.6418M452.08 20.5075V33V45.4925M459.44 22.3582H468.18M476.92 22.3582H468.18M468.18 22.3582V45.4925M483.36 22.3582L492.56 36.2388M492.56 36.2388V45.4925M492.56 36.2388L501.76 22.3582" stroke="white" stroke-width="4"/>
</svg>
