<svg width="63" height="62" viewBox="0 0 63 62" fill="none" xmlns="http://www.w3.org/2000/svg">
<g clip-path="url(#clip0_384_18301)">
<path fill-rule="evenodd" clip-rule="evenodd" d="M52.3353 25.9379H50.7899V30.8574H52.3353V25.9379ZM47.4939 25.9379H45.9535V30.8574H47.4939V25.9379ZM52.3353 33.3514H50.7899V38.2708H52.3353V33.3514ZM47.4939 33.3514H45.9535V38.2708H47.4939V33.3514ZM52.3353 40.765H50.7899V45.6893H52.3353V40.765ZM47.4939 40.765H45.9535V45.6893H47.4939V40.765ZM52.3353 48.1833H50.7899V53.1028H52.3353V48.1833ZM47.4939 48.1833H45.9535V53.1028H47.4939V48.1833ZM35.6058 6.74363V5.16902H32.955H32.9452H26.5833H26.5732H23.9278V6.74363H35.6058ZM32.5591 3.31851H26.9697V4.39138H32.5591V3.31851ZM29.4927 55.7436H30.2656V18.9202C30.2656 18.7051 30.0947 18.534 29.8844 18.534C29.6692 18.534 29.4929 18.7051 29.4929 18.9202V55.7436H29.4927ZM25.8691 55.7436H26.6469V18.9202C26.6469 18.7051 26.4709 18.534 26.2556 18.534C26.0404 18.534 25.8691 18.7051 25.8691 18.9202V55.7436ZM22.2456 55.7436H23.0181V18.9202C23.0181 18.7051 22.847 18.534 22.6366 18.534C22.4218 18.534 22.2455 18.7051 22.2455 18.9202V55.7436H22.2456ZM18.6219 55.7436H19.3997V18.9202C19.3997 18.7051 19.2234 18.534 19.0084 18.534C18.7932 18.534 18.6219 18.7051 18.6219 18.9202V55.7436ZM14.9984 55.7436H15.7709V18.9202C15.7709 18.7051 15.5998 18.534 15.3895 18.534C15.1743 18.534 14.9984 18.7051 14.9984 18.9202V55.7436ZM11.3795 55.7436H12.152V18.9202C12.152 18.7051 11.9762 18.534 11.7607 18.534C11.5505 18.534 11.3795 18.7051 11.3795 18.9202V55.7436ZM29.7863 58.3699C29.5809 58.3699 29.405 58.1984 29.405 57.9835C29.405 57.7682 29.5809 57.5972 29.7863 57.5972H61.8467C62.0617 57.5972 62.2331 57.7682 62.2331 57.9835C62.2331 58.1984 62.0617 58.3699 61.8467 58.3699H29.7863ZM0.841029 58.3158C0.630784 58.3158 0.455078 58.1398 0.455078 57.9296C0.455078 57.7145 0.630927 57.5385 0.841029 57.5385H16.03C16.2403 57.5385 16.4165 57.7146 16.4165 57.9296C16.4165 58.14 16.2403 58.3158 16.03 58.3158H0.841029ZM48.995 55.7436H55.1862V23.6933L43.6599 16.2015V39.3517V55.7437H42.8821V39.5081L39.8747 36.2415V55.7436H39.0975V35.2486V7.5164H35.9972H35.9871H23.5365H23.527H19.918V11.7806H33.0431C33.2585 11.7806 33.4296 11.9566 33.4296 12.1718V55.7437H32.6517V12.5583H19.5215H8.82677V55.7437H2.66516C2.45492 55.7437 2.27907 55.9199 2.27907 56.135C2.27907 56.3452 2.45506 56.5212 2.66516 56.5212H48.9855C49.2005 56.5212 49.3766 56.3451 49.3766 56.135C49.3766 55.9246 49.2056 55.7484 48.995 55.7436Z" fill="black"/>
</g>
<defs>
<clipPath id="clip0_384_18301">
<rect width="62" height="62" fill="white" transform="translate(0.5)"/>
</clipPath>
</defs>
</svg>
