<svg width="63" height="62" viewBox="0 0 63 62" fill="none" xmlns="http://www.w3.org/2000/svg">
<g clip-path="url(#clip0_384_18308)">
<path fill-rule="evenodd" clip-rule="evenodd" d="M35.1196 51.0021C34.8588 51.0021 34.6449 50.7887 34.6449 50.5283C34.6449 50.2677 34.8588 50.0545 35.1196 50.0545H39.7747C40.0354 50.0545 40.2482 50.2677 40.2482 50.5283C40.2482 50.7887 40.0354 51.0021 39.7747 51.0021H35.1196ZM31.7317 7.69287C29.0894 7.69287 26.6966 8.76494 24.967 10.5004L24.9436 10.5242C23.2253 12.2538 22.1598 14.6408 22.1598 17.2705C22.1598 20.1669 23.2845 24.3427 25.4052 27.4226C26.9931 29.7149 29.1128 31.3793 31.7317 31.3793C34.3494 31.3793 36.4937 29.715 38.0684 27.4226C40.1891 24.3427 41.3147 20.1669 41.3147 17.2705C41.3147 14.6229 40.2482 12.2301 38.5073 10.4947C36.7777 8.76494 34.385 7.69287 31.7317 7.69287ZM32.1809 41.0276L34.385 43.0829L39.1825 35.1814L37.559 33.689L32.1809 41.0276ZM28.462 43.4976L30.9371 41.0336L25.5591 33.6891L23.9129 35.1936L28.462 43.4976ZM27.9762 44.5637C27.9526 44.54 27.9405 44.5105 27.9283 44.4867L23.1072 35.6851L11.7111 40.1627V54.3069H17.5986V45.3809C17.5986 45.1085 17.8114 44.8894 18.0844 44.8894C18.3564 44.8894 18.5815 45.1085 18.5815 45.3809V54.2596H44.5253V45.3809C44.5253 45.1085 44.7503 44.8894 45.0223 44.8894C45.2952 44.8894 45.5081 45.1085 45.5081 45.3809V54.3069H51.3956V40.1627C50.9333 39.9792 50.4596 39.7837 49.998 39.612L39.9874 35.679L34.9055 44.0423C34.8821 44.0778 34.8586 44.1076 34.8351 44.1431C34.657 44.3325 34.3605 44.3443 34.1711 44.1667L31.5655 41.7383L28.6748 44.611V44.6169L28.6626 44.6228V44.6288L28.6512 44.6348V44.6408H28.6391V44.6467V44.6525H28.627V44.6584L28.6156 44.6643V44.6703L28.5922 44.6763V44.6822H28.5799V44.6882H28.5678V44.694H28.5565V44.6998H28.5443V44.7057H28.5322V44.7118H28.5208V44.7177H28.5086L28.4974 44.7237L28.4851 44.7295H28.473L28.4617 44.7355H28.4495H28.4373V44.7413H28.4261H28.4138H28.4025L28.3903 44.7472H28.3782H28.3669H28.3546H28.3425H28.319H28.2954V44.7413H28.2833H28.2721L28.2598 44.7355H28.2477H28.2364L28.2241 44.7295H28.212L28.2008 44.7237H28.1885L28.1772 44.7177V44.7118L28.1528 44.7057L28.1416 44.6998L28.1293 44.694L28.1172 44.6882L28.1059 44.6822L28.0937 44.6763V44.6703H28.0824V44.6643H28.0701V44.6584L28.0345 44.6348V44.6288V44.6228H28.0224V44.6169L28.0111 44.611V44.6052L27.9988 44.5993V44.5933V44.5873L27.9867 44.5813L27.9755 44.5695V44.5637H27.9762ZM51.4669 13.1065C50.0571 13.1065 48.7657 13.6811 47.8418 14.6051L47.8182 14.6289C46.9057 15.5528 46.3372 16.8264 46.3372 18.2302C46.3372 19.8116 46.9534 22.092 48.1146 23.774C48.955 25.0001 50.0927 25.8885 51.4669 25.8885C52.841 25.8885 53.9777 25.0001 54.8192 23.774C55.9804 22.0919 56.5956 19.8114 56.5956 18.2302C56.5956 16.8146 56.016 15.5293 55.091 14.6053L55.0676 14.5816C54.1438 13.6692 52.8767 13.1065 51.4669 13.1065ZM51.9998 31.4619L52.9002 32.3089L55.3641 28.2635L54.7479 27.7066L51.9998 31.4619ZM49.6896 32.5281L50.744 31.4738L47.9844 27.7068L47.3561 28.2753L49.6896 32.5281ZM49.8088 33.7185L49.7609 33.7363L49.7486 33.7422L49.7375 33.7482H49.7252V33.754H49.7141L49.7017 33.76H49.6896L49.6785 33.766H49.6662L49.6539 33.772H49.6305H49.6183H49.6072V33.7777H49.5949C49.5592 33.7777 49.5357 33.772 49.5125 33.772H49.5002L49.4889 33.766H49.4765L49.4646 33.76H49.4533L49.4289 33.754L49.4176 33.7482L49.4054 33.7422H49.3941L49.3818 33.7363L49.3697 33.7305V33.7246H49.3585L49.3462 33.7185L49.3342 33.7127L49.323 33.7067V33.7008L49.3107 33.6948V33.689H49.2986L49.2638 33.6653V33.6593V33.6535L49.2515 33.6475V33.6416L49.2394 33.6357V33.6297L49.2281 33.6238V33.6178H49.2159V33.612V33.606L49.2037 33.6002V33.5943V33.5883H49.1925V33.5823V33.5765V33.5705H49.1802L49.1691 33.5528V33.541V33.535L49.157 33.5291V33.5231V33.5113L46.5625 28.7729L40.4979 31.1481V34.8677L50.2347 38.694H62.2347V31.1481L56.1578 28.767L53.4217 33.2685C53.3973 33.304 53.3738 33.3395 53.3504 33.3693C53.1722 33.5646 52.8768 33.5705 52.6873 33.393L51.3835 32.1786L49.9035 33.6416V33.6475L49.8912 33.6535V33.6593H49.8791V33.6653L49.8678 33.6712V33.6772L49.8556 33.6831V33.689H49.8434L49.8199 33.7127H49.8088V33.7185ZM6.84228 28.767L0.765381 31.1481V38.694H12.7655L22.5033 34.8677V31.1481L16.4498 28.7729L13.8442 33.5291C13.7137 33.76 13.4287 33.843 13.2047 33.7185C13.1567 33.6948 13.1211 33.6712 13.0977 33.6357L11.6289 32.1786L10.3139 33.393C10.1244 33.5705 9.82804 33.5646 9.65064 33.3693C9.62626 33.3395 9.60287 33.304 9.57934 33.2685L6.84228 28.767ZM15.158 14.605C14.2341 13.6751 12.9436 13.1064 11.5338 13.1064C10.1241 13.1064 8.85608 13.6691 7.93217 14.5813L7.90864 14.605C6.98474 15.529 6.40421 16.8143 6.40421 18.2299C6.40421 19.8113 7.02039 22.0918 8.18072 23.7737C9.02206 24.9998 10.1597 25.8882 11.5338 25.8882C12.9079 25.8882 14.0446 24.9998 14.8861 23.7737C16.0472 22.0916 16.6626 19.8112 16.6626 18.2299C16.6626 16.8143 16.0829 15.529 15.158 14.605ZM10.0997 32.309L11.0001 31.462L8.25188 27.7069L7.64783 28.2638L10.0997 32.309ZM15.644 28.2753L15.0165 27.7068L12.2561 31.4738L13.3105 32.5281L15.644 28.2753ZM24.2562 15.3395C24.1379 15.1143 24.2205 14.8301 24.4578 14.7116C24.683 14.5933 24.9672 14.6821 25.0854 14.9131C25.3227 15.381 25.6425 15.766 25.9979 16.074C26.7435 16.7254 27.7031 17.0691 28.6512 17.152C29.6221 17.2348 30.5703 17.0631 31.2925 16.6901C31.6123 16.5242 31.8853 16.3227 32.098 16.086C33.7565 14.1906 34.5152 14.0186 35.0125 14.4571C35.2498 14.6585 35.3445 14.9486 35.4503 15.2507C35.4859 15.3693 35.5338 15.4937 35.593 15.6002C35.6754 15.7722 35.8293 15.8845 36.2559 15.6713C36.5993 15.5055 37.0026 15.3456 37.4171 15.2271C37.9622 15.079 38.5307 15.008 39.0278 15.1027C39.5971 15.2035 40.0708 15.4996 40.3673 16.08C40.414 16.1866 40.4619 16.311 40.4976 16.4472C40.5679 16.7019 40.414 16.9566 40.1656 17.0276C39.9169 17.0928 39.6675 16.9448 39.5972 16.7019C39.5727 16.6249 39.5494 16.5538 39.5136 16.4887C39.3833 16.2104 39.147 16.0742 38.8628 16.0207C38.5187 15.9555 38.0928 16.0147 37.6781 16.1274C37.3226 16.2281 36.9672 16.3702 36.6587 16.5184C35.522 17.0692 35.0483 16.6309 34.7397 16.0089C34.6805 15.8609 34.6216 15.7068 34.5624 15.5587C34.5033 15.375 34.4442 15.2033 34.3964 15.162C34.3139 15.0908 33.9584 15.3693 32.7972 16.7019C32.513 17.0276 32.1462 17.3061 31.7194 17.5253C30.8424 17.9753 29.7056 18.1825 28.5801 18.0878C27.4312 17.9872 26.2821 17.5726 25.3817 16.7788C24.9315 16.3939 24.5525 15.914 24.2562 15.3395ZM34.4797 21.0789C34.2424 21.1974 33.9704 21.1025 33.8514 20.8657C33.7331 20.6345 33.8279 20.3502 34.0531 20.2378C34.065 20.2318 36.3632 19.213 37.4765 20.3267C37.6537 20.5103 37.6537 20.8064 37.4765 20.99C37.2869 21.1737 36.9906 21.1737 36.8135 20.99C36.138 20.3267 34.4797 21.0789 34.4797 21.0789ZM29.4214 20.238C29.6466 20.3503 29.7413 20.6347 29.6343 20.8658C29.5161 21.1025 29.232 21.1974 28.9946 21.079C28.9946 21.079 27.3365 20.3268 26.6732 20.9902C26.4837 21.1738 26.1874 21.1738 26.0091 20.9902C25.8198 20.8064 25.8198 20.5103 25.9979 20.3268C27.1113 19.2131 29.4093 20.232 29.4214 20.238ZM35.1196 48.0819C34.8588 48.0819 34.6449 47.8689 34.6449 47.6082C34.6449 47.3476 34.8588 47.1343 35.1196 47.1343H39.7747C40.0354 47.1343 40.2482 47.3476 40.2482 47.6082C40.2482 47.8689 40.0354 48.0819 39.7747 48.0819H35.1196Z" fill="black"/>
</g>
<defs>
<clipPath id="clip0_384_18308">
<rect width="62" height="62" fill="white" transform="translate(0.5)"/>
</clipPath>
</defs>
</svg>
