<svg width="24" height="24" viewBox="0 0 24 24" fill="none" xmlns="http://www.w3.org/2000/svg">
<circle cx="12" cy="12" r="12" fill="#0A0A0A" fill-opacity="0.8"/>
<path d="M5.61045 12.2244L8.3693 13.2531L9.44478 16.7134C9.49154 16.9472 9.77211 16.9939 9.95915 16.8537L11.5022 15.5911C11.6425 15.4509 11.8763 15.4509 12.0634 15.5911L14.8222 17.6018C15.0092 17.7421 15.2898 17.6486 15.3366 17.4148L17.394 7.59514C17.4408 7.36134 17.207 7.12755 16.9732 7.22107L5.61045 11.6165C5.32988 11.71 5.32988 12.1309 5.61045 12.2244ZM9.30451 12.7388L14.7287 9.41879C14.8222 9.37203 14.9157 9.51231 14.8222 9.55907L10.38 13.7207C10.2397 13.861 10.0994 14.048 10.0994 14.2818L9.95915 15.4041C9.95915 15.5444 9.72534 15.5911 9.67858 15.4041L9.11746 13.3466C8.97717 13.1128 9.07071 12.8323 9.30451 12.7388Z" fill="#F9FAFB"/>
</svg>
