<svg width="63" height="62" viewBox="0 0 63 62" fill="none" xmlns="http://www.w3.org/2000/svg">
<path fill-rule="evenodd" clip-rule="evenodd" d="M17.651 43.9732C18.0097 43.9346 18.3533 44.0423 18.614 44.252C18.8761 44.4616 19.0596 44.7707 19.101 45.1294C19.1397 45.488 19.032 45.833 18.8237 46.0951C18.614 46.3571 18.3035 46.5392 17.9449 46.5807C17.5848 46.6221 17.2441 46.5117 16.9805 46.3021C16.7183 46.0951 16.5351 45.7833 16.4935 45.4247C16.455 45.0659 16.5624 44.7237 16.7721 44.4616C16.9806 44.1967 17.2911 44.0147 17.651 43.9732ZM14.6448 37.0809C13.6766 37.539 12.0901 38.2922 11.8415 38.775L11.8346 38.7889C11.6471 39.1834 11.8196 39.7931 12.0139 40.4829C12.0705 40.6816 12.1285 40.8885 12.1768 41.0844C12.5672 42.6461 12.5741 44.4671 12.581 46.2413C12.5866 48.0954 12.5934 49.9027 13.0502 51.2408C13.1081 51.4119 13.1453 51.4781 13.1742 51.4781C13.2872 51.4754 13.5052 51.3485 13.7895 51.1802C14.3054 50.8794 15.3525 50.3937 16.5432 49.8447C18.887 48.7603 21.809 47.4083 22.0434 46.8895C22.1276 46.7048 22.1469 46.4702 22.1099 46.1972L22.1085 46.1832C22.063 45.8688 21.9469 45.5046 21.7732 45.0989C21.3512 44.1111 20.2915 42.1799 19.2099 40.4332C18.3256 39.0039 17.429 37.707 16.8716 37.1663L16.866 37.1635V37.1609C16.4647 36.7773 16.1377 36.6448 15.8644 36.6366C15.5943 36.6283 15.3429 36.7414 15.1264 36.8489L14.6448 37.0809ZM17.6387 37.0009C18.2276 37.6768 19.0127 38.8357 19.7852 40.0801C20.7841 41.6943 21.7677 43.4684 22.2629 44.5361C26.5963 42.9192 28.816 43.6311 31.1668 44.387C32.7118 44.8837 34.3176 45.4025 36.6644 45.2259C38.5117 45.0906 42.7303 43.1069 46.1932 40.9024C49.0683 39.0702 51.401 37.125 51.3224 36.0544L51.3113 35.9468C51.2369 35.4113 50.9004 35.0969 50.463 34.9258C49.9704 34.7325 49.3483 34.7023 48.7895 34.7438C48.6459 34.7547 48.508 34.7685 48.3769 34.7879C47.0898 34.9644 45.3765 35.5135 43.736 36.2171C42.1481 36.8988 40.6333 37.7238 39.6482 38.499C39.342 39.1805 38.6178 39.5393 37.6824 39.6853C35.435 40.0386 31.8867 39.0839 30.5196 38.7142L30.2065 38.6313C30.0244 38.5817 29.9181 38.3968 29.9665 38.2148C30.0133 38.0354 30.1997 37.9277 30.3803 37.9774L30.6948 38.0602C32.0246 38.419 35.4764 39.3487 37.579 39.0177C38.586 38.8605 39.2593 38.3831 39.1048 37.3402L39.0894 37.2546C38.7762 35.6764 36.2158 34.6141 33.3381 34.0015C30.3802 33.3696 27.1176 33.2318 25.5186 33.4826L25.3199 33.5186C24.1761 33.7449 22.6959 34.363 21.2447 35.0692L21.2199 35.0859C19.9026 35.729 18.6264 36.4352 17.6387 37.0009ZM18.1933 44.7816C18.0664 44.6796 17.9009 44.6272 17.7257 44.6465C17.5519 44.6658 17.4015 44.7542 17.302 44.8809C17.1999 45.0078 17.1475 45.1763 17.1668 45.3501C17.1862 45.5239 17.2745 45.6729 17.4014 45.7723C17.5283 45.8742 17.6952 45.9268 17.8705 45.9075C18.0442 45.8881 18.1933 45.7997 18.2942 45.6729C18.3947 45.546 18.4472 45.3805 18.4279 45.2038C18.4084 45.0328 18.3202 44.881 18.1933 44.7816ZM5.39623 52.5957C5.20168 52.5957 5.04321 52.4383 5.04321 52.2425C5.04321 52.0494 5.20168 51.8893 5.39623 51.8893H43.6783C43.8727 51.8893 44.0314 52.0495 44.0314 52.2425C44.0314 52.4383 43.8727 52.5957 43.6783 52.5957H5.39623ZM18.5933 54.4084C18.4057 54.4084 18.2539 54.2539 18.2539 54.0691C18.2539 53.8814 18.4057 53.7297 18.5933 53.7297H45.7519C45.9394 53.7297 46.0912 53.8814 46.0912 54.0691C46.0912 54.2539 45.9394 54.4084 45.7519 54.4084H18.5933ZM34.4958 56.0584C34.3095 56.0584 34.1579 55.9067 34.1579 55.719C34.1579 55.5342 34.3095 55.3797 34.4958 55.3797H53.2898C53.4775 55.3797 53.6291 55.5342 53.6291 55.719C53.6291 55.9067 53.4775 56.0584 53.2898 56.0584H34.4958ZM55.2131 56.0584C55.0253 56.0584 54.8735 55.9067 54.8735 55.719C54.8735 55.5342 55.0253 55.3797 55.2131 55.3797H57.5638C57.7499 55.3797 57.9032 55.5342 57.9032 55.719C57.9032 55.9067 57.7499 56.0584 57.5638 56.0584H55.2131ZM17.5227 56.0088C17.3352 56.0088 17.1834 55.857 17.1834 55.6695C17.1834 55.4818 17.3352 55.33 17.5227 55.33H26.428C26.6141 55.33 26.7673 55.4818 26.7673 55.6695C26.7673 55.857 26.6141 56.0088 26.428 56.0088H17.5227Z" fill="black"/>
<path d="M31.3741 29.1988C37.8136 29.1988 43.0338 23.9785 43.0338 17.539C43.0338 11.0995 37.8136 5.8793 31.3741 5.8793C24.9346 5.8793 19.7144 11.0995 19.7144 17.539C19.7144 23.9785 24.9346 29.1988 31.3741 29.1988Z" stroke="black" stroke-width="2" stroke-linecap="round" stroke-linejoin="round"/>
<path d="M31.3755 11.1792V17.539L35.6154 21.779" stroke="black" stroke-width="2" stroke-linecap="round" stroke-linejoin="round"/>
</svg>
