<svg width="24" height="24" viewBox="0 0 24 24" fill="none" xmlns="http://www.w3.org/2000/svg">
<circle cx="12" cy="12" r="12" fill="#0A0A0A" fill-opacity="0.8"/>
<path d="M15.7524 6.32755C13.4654 5.89082 11.0906 5.89082 8.80366 6.32755C7.79215 6.54591 6.51675 7.76876 6.29686 8.72957C5.90105 10.6075 5.90105 12.5291 6.29686 14.4071C6.56073 15.3679 7.83612 16.5907 8.80366 16.8091C8.84764 16.8091 8.89162 16.8528 8.89162 16.8964V19.6478C8.89162 19.7789 9.06754 19.8662 9.1555 19.7352L10.4749 18.3813C10.4749 18.3813 11.5304 17.2895 11.7063 17.1148C11.7063 17.1148 11.7503 17.0711 11.7942 17.0711C13.1136 17.1148 14.477 16.9838 15.7963 16.7654C16.8079 16.5471 18.0832 15.3242 18.3031 14.3634C18.699 12.4855 18.699 10.5638 18.3031 8.6859C18.0393 7.76876 16.7639 6.54591 15.7524 6.32755ZM15.7963 14.5381C15.5764 14.9748 15.3126 15.3242 14.8728 15.5426C14.7408 15.5862 14.6089 15.6299 14.477 15.6736C14.301 15.6299 14.1691 15.5862 14.0372 15.5426C12.6298 14.9748 11.3105 14.1887 10.255 13.0532C9.68325 12.3981 9.19948 11.6557 8.80366 10.8695C8.62775 10.4765 8.45183 10.1271 8.31989 9.73405C8.18796 9.38466 8.40785 9.03528 8.62775 8.77324C8.84764 8.5112 9.11152 8.33651 9.41937 8.20549C9.63927 8.07447 9.85916 8.16182 10.0351 8.33651C10.3869 8.77324 10.7387 9.20997 11.0026 9.69038C11.1785 9.99609 11.1346 10.3455 10.8267 10.5638C10.7387 10.6075 10.6948 10.6512 10.6068 10.7385C10.5628 10.7822 10.4749 10.8259 10.4309 10.9132C10.3429 11.0442 10.3429 11.1753 10.3869 11.3063C10.7387 12.3108 11.3984 13.0969 12.4099 13.5336C12.5859 13.621 12.7178 13.6646 12.9377 13.6646C13.2455 13.621 13.3775 13.2716 13.5974 13.0969C13.8173 12.9222 14.0812 12.9222 14.345 13.0532C14.5649 13.1842 14.7848 13.3589 15.0487 13.5336C15.2686 13.7083 15.4885 13.8393 15.7084 14.014C15.8403 14.1014 15.8843 14.3197 15.7963 14.5381ZM13.9492 11.2626C13.8613 11.2626 13.9052 11.2626 13.9492 11.2626C13.7733 11.2626 13.7293 11.1753 13.6853 11.0442C13.6853 10.9569 13.6853 10.8259 13.6414 10.7385C13.5974 10.5638 13.5094 10.3891 13.3335 10.2581C13.2455 10.2145 13.1576 10.1708 13.0696 10.1271C12.9377 10.0834 12.8497 10.0834 12.7178 10.0834C12.5859 10.0398 12.5419 9.95242 12.5419 9.8214C12.5419 9.73405 12.6738 9.6467 12.7618 9.6467C13.4654 9.69038 13.9932 10.0834 14.0812 10.9132C14.0812 10.9569 14.0812 11.0442 14.0812 11.0879C14.0812 11.1753 14.0372 11.2626 13.9492 11.2626ZM13.5094 9.34099C13.2895 9.25365 13.0696 9.1663 12.8058 9.12263C12.7178 9.12263 12.5859 9.07895 12.4979 9.07895C12.366 9.07895 12.278 8.99161 12.322 8.86059C12.322 8.72957 12.4099 8.64222 12.5419 8.6859C12.9817 8.72957 13.3775 8.81691 13.7733 8.99161C14.5649 9.38467 15.0047 10.0398 15.1366 10.9132C15.1366 10.9569 15.1366 11.0006 15.1366 11.0442C15.1366 11.1316 15.1366 11.2189 15.1366 11.35C15.1366 11.3936 15.1366 11.4373 15.1366 11.481C15.0927 11.6557 14.7848 11.6993 14.7408 11.481C14.7408 11.4373 14.6969 11.35 14.6969 11.3063C14.6969 10.9132 14.6089 10.5202 14.433 10.1708C14.1691 9.77772 13.8613 9.51568 13.5094 9.34099ZM15.8843 11.9614C15.7524 11.9614 15.6644 11.8304 15.6644 11.6993C15.6644 11.4373 15.6204 11.1753 15.5764 10.9132C15.4005 9.51568 14.2571 8.38018 12.8937 8.16182C12.6738 8.11814 12.4539 8.11815 12.278 8.07447C12.1461 8.07447 11.9702 8.07447 11.9262 7.89978C11.8822 7.76876 12.0141 7.63774 12.1461 7.63774C12.1901 7.63774 12.234 7.63774 12.234 7.63774C12.322 7.63774 14.0372 7.68141 12.234 7.63774C14.0812 7.68141 15.6204 8.90426 15.9283 10.7385C15.9722 11.0442 16.0162 11.35 16.0162 11.6993C16.1042 11.8304 16.0162 11.9614 15.8843 11.9614Z" fill="#F9FAFB"/>
</svg>
